<svg width="512" height="192" viewBox="0 0 512 192" fill="none" xmlns="http://www.w3.org/2000/svg">
<path d="M250.21 152.986C253.352 158.396 251.917 165.307 246.881 169.016L218.912 189.615C215.513 192.119 211.064 192.694 207.14 191.137L134.988 162.496H182.587C184.446 162.496 185.627 160.505 184.737 158.871L128.084 54.9428C127.156 53.2399 124.713 53.2399 123.785 54.9428L67.1324 158.871C66.242 160.505 67.4232 162.496 69.2823 162.496H116.881L44.7286 191.137C40.8049 192.694 36.3564 192.119 32.9567 189.615L4.98847 169.016C-0.0474646 165.307 -1.48258 158.396 1.65956 152.986L86.9679 6.09675C89.16 2.32236 93.1926 0 97.5545 0H154.315C158.676 0 162.709 2.32236 164.901 6.09674L250.21 152.986Z" fill="#0088FF"/>
<path d="M312.732 147.312C292.315 147.312 280.223 135.805 280.223 118.942C280.223 101.284 293.702 90.1738 316.102 88.3882L347.818 85.809V82.6346C347.818 63.7868 336.519 57.8348 322.445 57.8348C305.794 57.8348 295.883 65.374 295.883 78.2699H283.395C283.395 58.8268 299.253 46.3277 322.842 46.3277C345.043 46.3277 361.298 57.438 361.298 82.833V144.932H349.801L348.017 128.068C342.07 140.17 328.987 147.312 312.732 147.312ZM315.904 136.202C336.123 136.202 347.818 122.116 347.818 101.284V96.1257L319.472 98.3081C301.433 99.8953 294.099 107.831 294.099 118.545C294.099 130.25 302.821 136.202 315.904 136.202Z" fill="#EEEEEE"/>
<path d="M423.038 47.7165V60.0172H415.505C397.863 60.0172 386.564 71.9211 386.564 90.1738V144.932H372.886V48.9069H385.771L386.762 63.7868C390.528 53.4701 400.638 46.7245 414.117 46.7245C417.091 46.7245 419.668 46.9229 423.038 47.7165Z" fill="#EEEEEE"/>
<path d="M446.982 144.932H433.304V46.7245H446.982V98.5065L494.556 48.9069H511.802L474.932 87.1978L512 144.932H496.142L465.615 96.9193L446.982 116.164V144.932Z" fill="#EEEEEE"/>
</svg>
